<svg fill="none" xmlns="http://www.w3.org/2000/svg" viewBox="24 47 244.92 190.65"> <path d="M146.306 237.621V134.271H146V237.621H146.306Z" fill="#1D1D1B"></path> <g clip-path="url(#clip0_135_13653)"> <path d="M28.5108 199.366C27.84 199.045 27.1206 199.006 26.3915 199.006H24V207.999H25.395C25.395 207.488 25.361 206.964 25.5797 206.487C25.9297 205.724 26.7512 205.355 27.4706 205.005C28.2386 204.635 29.0892 204.271 29.5996 203.551C30.0516 202.915 30.1732 202.069 30.0419 201.306C29.8912 200.436 29.2934 199.745 28.5108 199.366V199.366ZM28.4427 202.803C28.1122 203.299 27.5483 203.58 27.0282 203.838C26.4595 204.12 25.8762 204.402 25.395 204.83V200.309H26.7172C27.4609 200.309 28.2726 200.538 28.5691 201.296C28.749 201.763 28.7198 202.385 28.4379 202.803H28.4427Z" fill="#1D1D1B"></path> <path d="M38.7816 199.254C37.5712 198.569 35.8359 198.773 34.9027 199.828C34.4458 200.338 34.2173 200.999 34.1784 201.675C34.1687 201.845 34.1687 207.999 34.1687 207.999H35.554V205.019C36.3706 204.917 37.2796 204.995 37.9649 205.491C38.5774 205.938 38.8447 206.638 38.8496 207.377C38.8496 207.586 38.8496 207.999 38.8496 207.999H40.2349V201.972C40.2349 200.868 39.778 199.818 38.7913 199.259L38.7816 199.254ZM38.767 204.621C37.9455 203.789 36.6866 203.498 35.5492 203.678V202.21C35.5492 201.938 35.5443 201.67 35.6123 201.403C35.7436 200.897 36.1324 200.479 36.6282 200.309C37.1483 200.134 37.7511 200.212 38.1885 200.542C38.626 200.873 38.835 201.379 38.8399 201.923C38.8399 202.346 38.8399 202.769 38.8399 203.187V204.703C38.8156 204.674 38.7913 204.645 38.7621 204.616L38.767 204.621Z" fill="#1D1D1B"></path> <path d="M49.7328 204.655C49.5724 204.567 49.4023 204.499 49.2224 204.441C49.6648 204.198 50.1071 203.896 50.4182 203.488C50.705 203.109 50.8702 202.676 50.9237 202.205C51.0306 201.218 50.7098 200.28 49.8981 199.677C48.819 198.875 47.4483 199.002 46.1796 199.002H44.8575V207.994H46.2525C46.2525 207.727 46.2428 207.459 46.2525 207.192C46.2817 206.599 46.5442 206.025 47.0594 205.705C47.5746 205.384 48.26 205.36 48.7996 205.603C49.344 205.846 49.6988 206.371 49.7863 206.954C49.8398 207.294 49.8106 207.649 49.8106 207.994H51.2202C51.2202 207.498 51.2494 206.998 51.1376 206.512C50.9577 205.714 50.4425 205.039 49.7182 204.65L49.7328 204.655ZM47.6232 200.304C48.5128 200.304 49.412 200.737 49.5092 201.709C49.5578 202.176 49.4558 202.642 49.1398 203.002C48.7996 203.396 48.294 203.634 47.8323 203.853C47.2733 204.12 46.7143 204.402 46.2525 204.82V200.304H47.6232V200.304Z" fill="#1D1D1B"></path> <path d="M55.5803 200.265C56.0372 200.144 56.5087 200.086 56.9753 200.056V199.006H55.5803V200.265Z" fill="#1D1D1B"></path> <path d="M55.5803 201.053V207.999H56.9753V200.849C56.5038 200.868 56.0323 200.936 55.5803 201.058V201.053Z" fill="#1D1D1B"></path> <path d="M66.2982 203.683C65.7976 203.289 65.1949 203.065 64.6067 202.846C64.0574 202.647 63.4207 202.433 63.0221 201.981C62.6575 201.563 62.7353 200.902 63.1145 200.518C63.4936 200.134 64.1352 200.037 64.6505 200.202C65.2337 200.387 65.5837 200.912 65.5837 201.51H66.969C66.969 200.849 66.76 200.217 66.3031 199.731C65.8656 199.259 65.258 198.982 64.6261 198.9C63.9699 198.812 63.2846 198.9 62.7013 199.23C62.1569 199.541 61.6951 200.037 61.5007 200.64C61.316 201.218 61.3549 201.942 61.6514 202.477C61.9819 203.075 62.5846 203.435 63.1922 203.692C63.8581 203.974 64.6261 204.149 65.2192 204.572C65.4573 204.742 65.6566 204.961 65.7295 205.253C65.8024 205.544 65.7733 205.86 65.642 206.123C65.3212 206.764 64.5144 206.959 63.8581 206.832C63.1193 206.691 62.5846 206.074 62.5846 205.321H61.2139C61.2139 206.05 61.4521 206.74 61.977 207.265C62.4971 207.78 63.2165 208.062 63.9408 208.12C64.6991 208.179 65.4816 208.028 66.1087 207.581C66.6871 207.173 67.076 206.536 67.1489 205.831C67.2364 205.005 66.969 204.198 66.308 203.678L66.2982 203.683Z" fill="#1D1D1B"></path> <path d="M79.3153 203.872C79.6264 203.488 79.9278 203.085 80.1319 202.633C80.3312 202.185 80.4041 201.694 80.3507 201.208C80.2486 200.285 79.607 199.517 78.7758 199.138C77.9252 198.749 76.8509 198.768 76.0198 199.191C75.1788 199.619 74.5761 200.44 74.5226 201.398C74.4692 202.356 74.9261 203.24 75.6941 203.828L76.4815 202.817C76.1996 202.545 75.976 202.219 75.908 201.826C75.8448 201.447 75.908 201.067 76.1413 200.756C76.5933 200.144 77.4974 199.964 78.1682 200.299C78.5036 200.47 78.7855 200.761 78.9022 201.116C79.0188 201.471 78.9702 201.918 78.8098 202.268C78.6494 202.623 78.3918 202.929 78.1488 203.235L75.349 206.74L74.3477 207.989H80.6666V206.701H77.0405L79.3105 203.867L79.3153 203.872Z" fill="#1D1D1B"></path> <path d="M92.454 200.207C91.0589 198.846 88.8813 198.477 87.112 199.293C85.3281 200.115 84.2539 202.01 84.4386 203.96C84.6184 205.875 86.0523 207.513 87.9092 207.984C89.7951 208.461 91.8609 207.761 92.9935 206.161C94.1261 204.553 94.0969 202.297 92.9109 200.722C92.7748 200.538 92.6192 200.367 92.4588 200.207H92.454ZM92.1429 204.791C91.5985 206.074 90.3104 206.895 88.9153 206.813C87.564 206.73 86.3877 205.763 85.9989 204.475C85.5954 203.153 86.0718 201.675 87.1703 200.839C88.2737 199.998 89.834 199.969 90.9714 200.756C92.2449 201.636 92.7505 203.367 92.1429 204.796V204.791Z" fill="#1D1D1B"></path> <path d="M102.72 203.872C103.031 203.488 103.332 203.085 103.536 202.633C103.736 202.185 103.809 201.694 103.755 201.208C103.653 200.285 103.012 199.517 102.18 199.138C101.33 198.749 100.255 198.768 99.4243 199.191C98.5931 199.614 97.9806 200.44 97.9272 201.398C97.8737 202.375 98.3306 203.24 99.0986 203.828L99.886 202.817C99.6041 202.545 99.3805 202.219 99.3125 201.826C99.2493 201.447 99.3125 201.067 99.5458 200.756C99.9978 200.149 100.902 199.964 101.573 200.299C101.908 200.47 102.19 200.761 102.307 201.116C102.433 201.49 102.375 201.918 102.214 202.268C102.054 202.618 101.796 202.929 101.553 203.235L98.7535 206.74L97.7522 207.989H104.071V206.701H100.445L102.715 203.867L102.72 203.872Z" fill="#1D1D1B"></path> <path d="M112.568 201.413V204.46C111.902 203.989 111.071 203.843 110.376 203.425C109.773 203.065 109.583 202.438 109.578 201.772C109.578 201.121 109.578 199.006 109.578 199.006H108.183C108.183 199.006 108.183 200.878 108.183 201.811C108.183 202.769 108.422 203.707 109.204 204.324C109.685 204.703 110.269 204.937 110.847 205.141C111.362 205.321 111.907 205.544 112.262 205.982C112.539 206.322 112.568 206.735 112.568 207.153V207.994H113.909V201.408H112.568V201.413Z" fill="#1D1D1B"></path> <path fill-rule="evenodd" clip-rule="evenodd" d="M68.3398 230.237C68.3398 234.315 65.0345 237.62 60.9563 237.62C56.8781 237.62 53.5728 234.315 53.5728 230.237C53.5728 226.159 56.8781 222.853 60.9563 222.853C65.0345 222.853 68.3398 226.159 68.3398 230.237ZM60.9563 224.083C57.5586 224.083 54.8074 226.839 54.8074 230.237C54.8074 233.634 57.5635 236.386 60.9563 236.386C64.3491 236.386 67.11 233.63 67.11 230.237C67.11 226.844 64.354 224.083 60.9563 224.083Z" fill="#FAB31E"></path> <path fill-rule="evenodd" clip-rule="evenodd" d="M84.3365 230.237C84.3365 234.315 81.0312 237.62 76.953 237.62C72.8749 237.62 69.5695 234.315 69.5695 230.237C69.5695 226.159 72.8749 222.853 76.953 222.853C81.0312 222.853 84.3365 226.159 84.3365 230.237ZM76.953 224.083C73.5554 224.083 70.8042 226.839 70.8042 230.237C70.8042 233.634 73.5554 236.386 76.953 236.386C80.3507 236.386 83.1067 233.63 83.1067 230.237C83.1067 226.844 80.3507 224.083 76.953 224.083Z" fill="#009640"></path> <path fill-rule="evenodd" clip-rule="evenodd" d="M52.9604 216.087C48.8822 216.087 45.5769 219.392 45.5769 223.466C45.5769 227.539 48.8822 230.849 52.9604 230.849C53.1742 230.849 53.3881 230.835 53.5971 230.82C53.5825 230.626 53.5728 230.431 53.5728 230.237C53.5728 230.018 53.5874 229.804 53.602 229.59C53.3881 229.61 53.1742 229.619 52.9604 229.619C49.5627 229.619 46.8066 226.868 46.8066 223.471C46.8066 220.073 49.5627 217.317 52.9604 217.317C56.358 217.317 59.1092 220.073 59.1092 223.471C59.1092 226.198 57.335 228.511 54.8706 229.318C54.8269 229.619 54.8026 229.926 54.8026 230.237C54.8026 230.363 54.8026 230.49 54.8123 230.616C57.9912 229.79 60.3341 226.902 60.3341 223.471C60.3341 219.392 57.0288 216.092 52.9555 216.092" fill="#0079C2"></path> <path fill-rule="evenodd" clip-rule="evenodd" d="M84.949 216.087C81.0701 216.087 77.8911 219.077 77.5946 222.882C78.0127 222.917 78.4161 222.989 78.8098 223.091C79.0043 219.869 81.6777 217.317 84.949 217.317C88.2202 217.317 91.1027 220.073 91.1027 223.466C91.1027 226.859 88.3515 229.619 84.949 229.619C81.8672 229.619 79.3105 227.35 78.8681 224.389C78.4598 224.258 78.037 224.166 77.5995 224.117C77.93 227.889 81.0944 230.849 84.9538 230.849C89.032 230.849 92.3373 227.544 92.3373 223.466C92.3373 219.388 89.032 216.087 84.9538 216.087" fill="#E62644"></path> <path fill-rule="evenodd" clip-rule="evenodd" d="M68.9571 216.087C65.0782 216.087 61.8993 219.081 61.5979 222.882C62.0159 222.921 62.4194 222.989 62.8179 223.091C63.0124 219.869 65.6858 217.317 68.9571 217.317C72.2284 217.317 75.1059 220.073 75.1059 223.466C75.1059 226.198 73.3318 228.506 70.8722 229.313C70.8285 229.615 70.8042 229.921 70.8042 230.232C70.8042 230.358 70.8042 230.485 70.8139 230.611C73.988 229.785 76.3357 226.897 76.3357 223.466C76.3357 219.392 73.0304 216.087 68.9522 216.087" fill="#1D1D1B"></path> <path fill-rule="evenodd" clip-rule="evenodd" d="M69.5695 230.237C69.5695 230.018 69.5793 229.804 69.5987 229.59C69.3848 229.61 69.171 229.619 68.9522 229.619C65.8656 229.619 63.3137 227.349 62.8666 224.389C62.4583 224.258 62.0354 224.166 61.5979 224.122C61.9284 227.889 65.0928 230.854 68.9522 230.854C69.1661 230.854 69.38 230.839 69.589 230.825C69.5744 230.63 69.5647 230.436 69.5647 230.242" fill="#1D1D1B"></path> <path d="M72.1214 183.608C71.3486 183.321 70.0508 183.297 68.9522 184.186C67.8537 183.292 66.5559 183.321 65.783 183.608C65.1365 183.846 64.631 184.006 63.6783 184.001C64.6213 185.965 66.6288 187.321 68.9474 187.321C71.2659 187.321 73.2783 185.965 74.2164 184.001C73.2637 184.011 72.7582 183.851 72.1117 183.608H72.1214Z" fill="#D7C47B"></path> <path d="M68.9571 134.271C53.0673 134.271 40.1815 147.152 40.1815 163.042C40.1815 176.662 49.6453 188.075 62.3611 191.054C52.2604 185.649 48.1385 173.259 53.009 162.877C53.7964 166.974 56.4698 170.629 60.4605 172.525C55.2498 160.344 59.0849 146.024 69.8369 138.106C67.7225 145.349 70.9695 151.969 77.9349 156.971C85.9017 162.692 86.2419 174.362 79.2084 180.672C82.0034 180.02 84.599 178.484 86.5433 176.127C85.3476 182.295 81.4784 187.88 75.5434 191.054C88.2543 188.075 97.723 176.662 97.723 163.042C97.723 147.152 84.8469 134.271 68.9571 134.271Z" fill="#D7C47B"></path> <path d="M89.9361 189.173H90.4805V191.054H90.743V189.173H91.2874V188.93H89.941V189.173H89.9361ZM93.6886 188.93C93.2852 188.93 92.9595 189.105 92.8039 189.397C92.6484 189.105 92.3227 188.93 91.9193 188.93H91.7783V191.059H92.0408V189.193H92.0505C92.4297 189.193 92.6776 189.46 92.6776 189.873V190.403H92.94V189.873C92.94 189.46 93.1831 189.193 93.5671 189.193H93.5768V191.059H93.8393V188.93H93.6983H93.6886Z" fill="#D7C47B"></path> </g> <g clip-path="url(#clip1_135_13653)"> <path d="M183.511 199.366C182.84 199.045 182.121 199.006 181.392 199.006H179V207.999H180.396C180.396 207.489 180.361 206.964 180.58 206.487C180.93 205.724 181.752 205.355 182.471 205.005C183.239 204.635 184.09 204.271 184.6 203.551C185.052 202.915 185.174 202.069 185.042 201.306C184.892 200.436 184.294 199.745 183.511 199.366V199.366ZM183.443 202.803C183.113 203.299 182.549 203.58 182.029 203.838C181.46 204.12 180.877 204.402 180.396 204.83V200.309H181.718C182.461 200.309 183.273 200.538 183.57 201.296C183.749 201.763 183.72 202.385 183.438 202.803H183.443Z" fill="#1D1D1B"></path> <path d="M193.782 199.254C192.572 198.569 190.836 198.773 189.903 199.828C189.446 200.338 189.218 200.999 189.179 201.675C189.169 201.845 189.169 207.999 189.169 207.999H190.555V205.019C191.371 204.917 192.28 204.995 192.965 205.491C193.578 205.938 193.845 206.638 193.85 207.377C193.85 207.586 193.85 207.999 193.85 207.999H195.235V201.972C195.235 200.868 194.779 199.818 193.792 199.259L193.782 199.254ZM193.768 204.621C192.946 203.789 191.687 203.498 190.55 203.678V202.21C190.55 201.938 190.545 201.67 190.613 201.403C190.744 200.897 191.133 200.479 191.629 200.309C192.149 200.134 192.752 200.212 193.189 200.542C193.631 200.873 193.836 201.379 193.84 201.923C193.84 202.346 193.84 202.769 193.84 203.187V204.703C193.816 204.674 193.792 204.645 193.763 204.616L193.768 204.621Z" fill="#1D1D1B"></path> <path d="M204.733 204.655C204.573 204.567 204.403 204.499 204.223 204.441C204.665 204.198 205.108 203.896 205.419 203.488C205.706 203.109 205.871 202.676 205.924 202.205C206.031 201.218 205.71 200.28 204.899 199.677C203.82 198.875 202.449 199.002 201.18 199.002H199.858V207.994H201.253C201.253 207.727 201.243 207.459 201.253 207.192C201.282 206.599 201.545 206.025 202.06 205.705C202.575 205.384 203.261 205.359 203.8 205.603C204.345 205.846 204.699 206.371 204.787 206.954C204.84 207.294 204.811 207.649 204.811 207.994H206.221C206.221 207.498 206.25 206.998 206.138 206.511C205.958 205.714 205.443 205.039 204.719 204.65L204.733 204.655ZM202.624 200.304C203.513 200.304 204.413 200.737 204.51 201.709C204.558 202.176 204.456 202.642 204.14 203.002C203.8 203.396 203.295 203.634 202.833 203.853C202.274 204.12 201.715 204.402 201.253 204.82V200.304H202.624V200.304Z" fill="#1D1D1B"></path> <path d="M210.581 200.265C211.038 200.144 211.509 200.086 211.976 200.056V199.006H210.581V200.265Z" fill="#1D1D1B"></path> <path d="M210.581 201.053V207.999H211.976V200.849C211.505 200.868 211.033 200.936 210.581 201.058V201.053Z" fill="#1D1D1B"></path> <path d="M221.299 203.683C220.798 203.289 220.196 203.065 219.607 202.847C219.058 202.647 218.421 202.433 218.023 201.981C217.658 201.563 217.736 200.902 218.115 200.518C218.504 200.125 219.136 200.037 219.651 200.202C220.234 200.387 220.584 200.912 220.584 201.51H221.97C221.97 200.849 221.761 200.217 221.304 199.731C220.866 199.259 220.259 198.982 219.627 198.9C218.971 198.812 218.285 198.9 217.702 199.23C217.158 199.541 216.696 200.037 216.501 200.64C216.317 201.218 216.356 201.942 216.652 202.477C216.983 203.075 217.585 203.435 218.193 203.692C218.859 203.974 219.627 204.149 220.22 204.572C220.458 204.742 220.657 204.961 220.73 205.253C220.798 205.539 220.774 205.86 220.643 206.123C220.322 206.764 219.515 206.959 218.859 206.832C218.12 206.691 217.585 206.074 217.585 205.321H216.215C216.215 206.05 216.453 206.74 216.978 207.265C217.498 207.78 218.217 208.062 218.942 208.121C219.7 208.179 220.482 208.028 221.109 207.581C221.688 207.173 222.077 206.536 222.15 205.831C222.237 205.005 221.97 204.198 221.309 203.678L221.299 203.683Z" fill="#1D1D1B"></path> <path d="M234.316 203.872C234.627 203.488 234.929 203.085 235.133 202.633C235.332 202.185 235.405 201.694 235.352 201.208C235.249 200.285 234.608 199.517 233.777 199.138C232.926 198.749 231.852 198.768 231.021 199.191C230.189 199.614 229.577 200.44 229.523 201.398C229.47 202.375 229.927 203.24 230.695 203.828L231.482 202.817C231.2 202.545 230.977 202.219 230.909 201.826C230.841 201.432 230.909 201.067 231.142 200.756C231.594 200.144 232.498 199.964 233.169 200.299C233.504 200.47 233.786 200.761 233.903 201.116C234.029 201.49 233.971 201.918 233.811 202.268C233.65 202.623 233.393 202.929 233.15 203.235L230.35 206.74L229.348 207.989H235.667V206.701H232.041L234.311 203.867L234.316 203.872Z" fill="#1D1D1B"></path> <path d="M247.455 200.207C246.06 198.846 243.882 198.477 242.113 199.293C240.344 200.11 239.255 202.011 239.439 203.96C239.619 205.875 241.053 207.513 242.91 207.984C244.796 208.461 246.862 207.761 247.994 206.162C249.127 204.553 249.098 202.297 247.912 200.722C247.776 200.538 247.62 200.368 247.46 200.207H247.455ZM247.144 204.791C246.599 206.074 245.311 206.896 243.916 206.813C242.565 206.73 241.389 205.763 241 204.475C240.596 203.153 241.073 201.675 242.171 200.839C243.275 199.998 244.835 199.969 245.972 200.756C247.246 201.636 247.751 203.367 247.144 204.796V204.791Z" fill="#1D1D1B"></path> <path d="M257.721 203.872C258.032 203.488 258.333 203.085 258.537 202.633C258.737 202.185 258.81 201.694 258.756 201.208C258.654 200.285 258.013 199.517 257.181 199.138C256.331 198.749 255.256 198.768 254.425 199.191C253.584 199.619 252.982 200.44 252.928 201.398C252.875 202.375 253.332 203.24 254.1 203.828L254.887 202.817C254.605 202.545 254.382 202.219 254.313 201.826C254.25 201.447 254.313 201.067 254.547 200.756C254.999 200.149 255.903 199.964 256.574 200.299C256.909 200.47 257.191 200.761 257.308 201.116C257.434 201.49 257.376 201.918 257.215 202.268C257.055 202.623 256.797 202.929 256.554 203.235L253.754 206.74L252.753 207.989H259.072V206.701H255.446L257.716 203.867L257.721 203.872Z" fill="#1D1D1B"></path> <path d="M267.569 201.413V204.46C266.903 203.989 266.072 203.843 265.377 203.425C264.774 203.065 264.584 202.438 264.579 201.772C264.579 201.121 264.579 199.006 264.579 199.006H263.184C263.184 199.006 263.184 200.878 263.184 201.811C263.184 202.769 263.423 203.707 264.205 204.324C264.686 204.703 265.27 204.937 265.848 205.141C266.363 205.321 266.908 205.544 267.263 205.982C267.54 206.322 267.569 206.735 267.569 207.153V207.994H268.91V201.408H267.569V201.413Z" fill="#1D1D1B"></path> <path d="M222.49 216.277C220.395 215.796 217.532 216.325 214.824 217.886C210.591 220.331 208.35 224.37 209.818 226.907C210.756 228.531 212.977 229.148 215.568 228.745C214.382 228.473 213.444 227.875 212.914 226.961C211.446 224.424 213.692 220.384 217.921 217.939C219.447 217.059 221.027 216.505 222.49 216.277" fill="#E62644"></path> <path d="M222.524 226.295C223.156 228.351 225.047 230.568 227.749 232.128C231.983 234.573 236.601 234.495 238.069 231.953C239.007 230.329 238.428 228.093 236.785 226.057C237.14 227.218 237.097 228.332 236.567 229.245C235.099 231.783 230.481 231.861 226.247 229.42C224.721 228.541 223.452 227.447 222.524 226.295Z" fill="#009640"></path> <path d="M219.656 221.313C218.188 222.888 217.216 225.634 217.216 228.755C217.216 233.64 219.593 237.601 222.524 237.601C224.395 237.601 226.043 235.983 226.991 233.542C226.165 234.432 225.178 234.947 224.118 234.947C221.187 234.947 218.81 230.986 218.81 226.101C218.81 224.336 219.121 222.693 219.656 221.313Z" fill="#0079C2"></path> <path d="M227.122 183.608C226.349 183.321 225.052 183.296 223.953 184.186C222.854 183.292 221.557 183.321 220.784 183.608C220.137 183.846 219.632 184.006 218.679 184.001C219.622 185.965 221.63 187.321 223.948 187.321C226.267 187.321 228.279 185.965 229.217 184.001C228.265 184.011 227.759 183.851 227.113 183.608H227.122Z" fill="#D7C47B"></path> <path d="M223.958 134.271C208.068 134.271 195.182 147.152 195.182 163.042C195.182 176.661 204.646 188.075 217.362 191.054C207.261 185.649 203.139 173.259 208.01 162.876C208.797 166.974 211.47 170.629 215.461 172.525C210.25 160.344 214.086 146.024 224.838 138.106C222.723 145.348 225.97 151.969 232.936 156.97C240.903 162.692 241.243 174.362 234.209 180.672C237.004 180.02 239.6 178.484 241.544 176.127C240.348 182.295 236.479 187.88 230.544 191.054C243.255 188.075 252.724 176.661 252.724 163.042C252.724 147.152 239.848 134.271 223.958 134.271Z" fill="#D7C47B"></path> <path d="M244.937 189.173H245.481V191.054H245.744V189.173H246.288V188.93H244.942V189.173H244.937ZM248.69 188.93C248.286 188.93 247.96 189.105 247.805 189.397C247.649 189.105 247.324 188.93 246.92 188.93H246.779V191.059H247.042V189.193H247.051C247.431 189.193 247.678 189.46 247.678 189.873V190.403H247.941V189.873C247.941 189.46 248.184 189.193 248.568 189.193H248.578V191.059H248.84V188.93H248.699H248.69Z" fill="#D7C47B"></path> </g> <g clip-path="url(#clip2_135_13653)"> <path d="M200.72 47.0002H92V74.0503H200.72V47.0002Z" fill="#0072B5"></path> <path d="M111.137 53.5623H119.133V56.6245L114.734 56.6294V58.8994L118.545 58.8945V61.8839L114.734 61.8887V64.4066H119.133V67.4592H111.137V53.5623Z" fill="white"></path> <path d="M135.552 53.5623C135.552 53.5623 130.925 61.3978 130.473 62.1026C129.943 62.9338 128.796 64.2511 127.061 64.2268C124.232 64.183 123.172 62.2387 123.172 60.4937C123.172 58.5057 124.761 56.8044 126.842 56.7655C129.19 56.7169 130.935 58.9577 130.935 58.9577L132.772 56.0121C132.772 56.0121 130.692 53.2026 126.876 53.2901C121.126 53.4165 119.449 58.214 119.449 60.4354C119.449 65.1163 123.07 67.4543 126.025 67.7362C130.283 68.1494 132.612 65.3788 132.612 65.3788C132.612 65.3788 132.582 65.3739 132.728 65.3691C133.589 65.3593 135.854 65.3788 135.854 65.3788V67.464H139.315V53.5623H135.557H135.552ZM135.922 62.4672H134.07L135.922 59.3223V62.4672Z" fill="white"></path> <path d="M142.853 67.4689V56.8821H140.063V53.5574H149.235V56.8821H146.45V67.4689H142.853Z" fill="white"></path> <path d="M157.27 62.1463H153.571V67.4689H149.979V53.5623H153.571V58.841H157.27V53.5623H160.862V67.4689H157.27V62.1463Z" fill="white"></path> <path d="M161.961 67.4689V53.5671H165.533V64.3969H169.728V67.4689H161.961Z" fill="white"></path> <path d="M169.816 55.317C171.211 53.9609 172.966 53.2706 174.978 53.2706C176.869 53.2706 178.662 53.9997 180.043 55.3316C181.482 56.7266 182.235 58.5202 182.235 60.4257C182.235 62.4332 181.516 64.2268 180.184 65.5781C178.808 66.9925 176.932 67.7605 174.958 67.7605C172.863 67.7605 171.075 67.012 169.675 65.5538C168.343 64.1587 167.662 62.4332 167.662 60.3673C167.662 58.4376 168.416 56.6683 169.811 55.3121M174.954 64.2948C176.99 64.2948 178.643 62.6859 178.643 60.4062C178.643 58.3598 176.985 56.7266 174.992 56.7266C172.883 56.7266 171.225 58.3598 171.225 60.4062C171.225 62.6081 173 64.2948 174.954 64.2948Z" fill="white"></path> <path d="M181.905 67.4689V53.5623H185.151L190.552 61.286V53.5623H194.154V67.4689H190.989L185.501 59.7208V67.4689H181.905Z" fill="white"></path> <path d="M98.5815 67.4689V53.5623H103.603C105.936 53.5623 107.569 53.8539 109.095 55.2246C110.495 56.4738 111.244 58.2966 111.244 60.5812C111.244 62.6956 110.519 64.4309 109.115 65.7433C107.545 67.187 106.164 67.464 104.098 67.464H98.5815V67.4689ZM107.671 60.4694C107.671 57.9661 106.242 56.5565 103.603 56.5565H102.174V64.4163H103.617C106.368 64.4163 107.666 63.206 107.666 60.4694" fill="white"></path> </g> <path d="M93.8927 98.9995V92.2427H95.8188C96.3269 92.2427 96.7698 92.3079 97.1475 92.4384C97.5252 92.562 97.8204 92.768 98.0333 93.0564C98.2462 93.3448 98.3526 93.7362 98.3526 94.2306C98.3526 94.7044 98.2462 95.0958 98.0333 95.4048C97.8273 95.7069 97.5355 95.937 97.1578 96.0949C96.787 96.246 96.3544 96.3215 95.86 96.3215H94.7476V98.9995H93.8927ZM94.7476 95.6211H95.757C96.3475 95.6211 96.7836 95.5078 97.0651 95.2812C97.3535 95.0546 97.4977 94.7044 97.4977 94.2306C97.4977 93.7431 97.3466 93.4066 97.0445 93.2212C96.7492 93.0289 96.3063 92.9328 95.7158 92.9328H94.7476V95.6211ZM99.0788 98.9995L101.365 92.2427H102.334L104.62 98.9995H103.714L102.529 95.2194C102.406 94.8417 102.289 94.4675 102.179 94.0967C102.069 93.719 101.959 93.3345 101.85 92.9431H101.808C101.705 93.3345 101.599 93.719 101.489 94.0967C101.379 94.4675 101.262 94.8417 101.139 95.2194L99.944 98.9995H99.0788ZM100.274 96.9395V96.2597H103.395V96.9395H100.274ZM106.289 98.9995V92.2427H108.4C108.86 92.2427 109.269 92.3045 109.626 92.4281C109.983 92.5448 110.261 92.744 110.46 93.0255C110.666 93.3002 110.769 93.671 110.769 94.1379C110.769 94.5911 110.666 94.9653 110.46 95.2606C110.261 95.5559 109.983 95.779 109.626 95.9301C109.269 96.0743 108.86 96.1464 108.4 96.1464H107.143V98.9995H106.289ZM107.143 95.446H108.276C108.805 95.446 109.21 95.3396 109.492 95.1267C109.773 94.907 109.914 94.5774 109.914 94.1379C109.914 93.6984 109.773 93.3894 109.492 93.2109C109.21 93.0255 108.805 92.9328 108.276 92.9328H107.143V95.446ZM109.997 98.9995L108.235 95.9095L108.905 95.4563L110.965 98.9995H109.997ZM114.134 98.9995V92.974H112.094V92.2427H117.038V92.974H114.999V98.9995H114.134ZM118.976 98.9995V92.2427H122.869V92.9637H119.831V95.0855H122.396V95.8168H119.831V98.2682H122.972V98.9995H118.976ZM125.129 98.9995V92.2427H126.066L128.466 96.4451C128.596 96.6717 128.72 96.9086 128.837 97.1558C128.953 97.3961 129.07 97.6433 129.187 97.8974H129.228C129.207 97.5472 129.183 97.1901 129.156 96.8262C129.128 96.4554 129.115 96.0983 129.115 95.755V92.2427H129.939V98.9995H129.001L126.602 94.7971C126.478 94.5705 126.351 94.3336 126.22 94.0864C126.097 93.8392 125.98 93.592 125.87 93.3448H125.829C125.857 93.6813 125.881 94.028 125.901 94.3851C125.929 94.7422 125.942 95.1027 125.942 95.4666V98.9995H125.129ZM131.622 98.9995L133.909 92.2427H134.877L137.164 98.9995H136.257L135.073 95.2194C134.949 94.8417 134.833 94.4675 134.723 94.0967C134.613 93.719 134.503 93.3345 134.393 92.9431H134.352C134.249 93.3345 134.142 93.719 134.033 94.0967C133.923 94.4675 133.806 94.8417 133.682 95.2194L132.488 98.9995H131.622ZM132.817 96.9395V96.2597H135.938V96.9395H132.817ZM138.832 98.9995V92.2427H139.687V98.9995H138.832ZM142.259 98.9995V92.2427H144.37C144.83 92.2427 145.239 92.3045 145.596 92.4281C145.953 92.5448 146.231 92.744 146.43 93.0255C146.636 93.3002 146.739 93.671 146.739 94.1379C146.739 94.5911 146.636 94.9653 146.43 95.2606C146.231 95.5559 145.953 95.779 145.596 95.9301C145.239 96.0743 144.83 96.1464 144.37 96.1464H143.114V98.9995H142.259ZM143.114 95.446H144.247C144.775 95.446 145.181 95.3396 145.462 95.1267C145.744 94.907 145.884 94.5774 145.884 94.1379C145.884 93.6984 145.744 93.3894 145.462 93.2109C145.181 93.0255 144.775 92.9328 144.247 92.9328H143.114V95.446ZM145.967 98.9995L144.206 95.9095L144.875 95.4563L146.935 98.9995H145.967ZM148.844 98.9995V92.2427H152.737V92.9637H149.699V95.0855H152.264V95.8168H149.699V98.2682H152.84V98.9995H148.844ZM160.272 99.1231C159.709 99.1231 159.208 98.9789 158.768 98.6905C158.336 98.4021 157.996 97.9935 157.749 97.4648C157.508 96.9361 157.388 96.3112 157.388 95.5902C157.388 94.8692 157.508 94.2512 157.749 93.7362C157.996 93.2143 158.336 92.8161 158.768 92.5414C159.208 92.2599 159.709 92.1191 160.272 92.1191C160.842 92.1191 161.343 92.2599 161.776 92.5414C162.209 92.8161 162.549 93.2143 162.796 93.7362C163.043 94.2512 163.167 94.8692 163.167 95.5902C163.167 96.3112 163.043 96.9361 162.796 97.4648C162.549 97.9935 162.209 98.4021 161.776 98.6905C161.343 98.9789 160.842 99.1231 160.272 99.1231ZM160.272 98.3609C160.677 98.3609 161.028 98.2476 161.323 98.021C161.625 97.7944 161.858 97.4751 162.023 97.0631C162.188 96.6442 162.27 96.1533 162.27 95.5902C162.27 95.034 162.188 94.5533 162.023 94.1482C161.858 93.7431 161.625 93.4306 161.323 93.2109C161.028 92.9843 160.677 92.871 160.272 92.871C159.874 92.871 159.524 92.9843 159.222 93.2109C158.92 93.4306 158.686 93.7431 158.521 94.1482C158.356 94.5533 158.274 95.034 158.274 95.5902C158.274 96.1533 158.356 96.6442 158.521 97.0631C158.686 97.4751 158.92 97.7944 159.222 98.021C159.524 98.2476 159.874 98.3609 160.272 98.3609ZM165.34 98.9995V92.2427H169.234V92.9637H166.195V95.2503H168.77V95.9713H166.195V98.9995H165.34ZM171.151 98.9995V92.2427H175.045V92.9637H172.006V95.2503H174.581V95.9713H172.006V98.9995H171.151ZM176.962 98.9995V92.2427H177.817V98.9995H176.962ZM182.953 99.1231C182.39 99.1231 181.882 98.9858 181.429 98.7111C180.983 98.4296 180.632 98.0279 180.378 97.506C180.124 96.9841 179.997 96.3558 179.997 95.6211C179.997 95.0786 180.069 94.5911 180.213 94.1585C180.365 93.7259 180.577 93.3585 180.852 93.0564C181.127 92.7474 181.443 92.5139 181.8 92.356C182.164 92.1981 182.562 92.1191 182.994 92.1191C183.4 92.1191 183.76 92.2015 184.076 92.3663C184.399 92.5311 184.656 92.7268 184.848 92.9534L184.385 93.4787C184.206 93.2864 184 93.1388 183.767 93.0358C183.54 92.9259 183.286 92.871 183.005 92.871C182.586 92.871 182.215 92.9843 181.892 93.2109C181.576 93.4306 181.329 93.7465 181.151 94.1585C180.972 94.5636 180.883 95.0443 180.883 95.6005C180.883 96.1704 180.969 96.6614 181.14 97.0734C181.312 97.4854 181.559 97.8047 181.882 98.0313C182.205 98.251 182.582 98.3609 183.015 98.3609C183.331 98.3609 183.612 98.3025 183.86 98.1858C184.114 98.0622 184.344 97.8837 184.55 97.6502L185.003 98.1549C184.735 98.4639 184.436 98.7042 184.107 98.8759C183.777 99.0407 183.393 99.1231 182.953 99.1231ZM186.994 98.9995V92.2427H187.849V98.9995H186.994ZM190.421 98.9995V92.2427H194.314V92.9637H191.275V95.0855H193.84V95.8168H191.275V98.2682H194.417V98.9995H190.421ZM196.573 98.9995V92.2427H197.428V98.2682H200.384V98.9995H196.573Z" fill="black"></path> <defs> <clipPath id="clip0_135_13653"> <rect width="89.9093" height="103.349" fill="white" transform="translate(24 134.271)"></rect> </clipPath> <clipPath id="clip1_135_13653"> <rect width="89.9099" height="103.331" fill="white" transform="translate(179 134.271)"></rect> </clipPath> <clipPath id="clip2_135_13653"> <rect width="108.72" height="27.0501" fill="white" transform="translate(92 47.0002)"></rect> </clipPath> </defs> </svg>